<svg width="175" height="162" viewBox="0 0 175 162" fill="none" xmlns="http://www.w3.org/2000/svg">
<rect width="175" height="162" rx="50" fill="#FFFDFD"/>
<path d="M113.99 62.3195L106.591 67.8212C103.332 69.8581 99.925 71.6465 96.3975 73.171L95.9552 73.3622L89.7792 75.7951L82.101 77.8551L74.6739 79.3787L66.3352 80.5422L57.5592 81.5483L50.7117 81.5483L50.7117 87.344L50.7117 81.5483L44.8964 81.5483C43.5994 81.5483 42.5157 80.7142 42.1678 79.5997C39.0083 69.4774 37.6433 61.7034 41.2021 55.035C46.4349 45.2299 55.4405 37.7376 66.2659 34.2614C77.0355 30.8031 89.3502 31.8166 99.3657 36.7681C106.405 40.2484 111.576 48.3023 115.247 57.9211C115.748 59.2335 115.421 61.0068 113.99 62.3195Z" stroke="black" stroke-width="13"/>
<path d="M20.1065 88.194C17.6922 91.282 7.32124 99.2629 8.03515 103.634C8.74906 108.006 15.7754 111.495 23.676 110.051C31.5767 108.607 37.1513 97.9394 47.5384 96.4155C57.9256 94.8915 65.2247 101.79 75.6118 102.431C85.999 103.073 91.8142 102.752 99.4742 99.6238C107.134 96.4957 111.024 89.357 113.912 86.7903" stroke="black" stroke-width="13" stroke-linecap="round"/>
<path d="M124.104 81.9777H134.261L146.106 80.6541C152.744 79.3131 164.783 74.0493 159.839 63.7228C153.659 50.8148 136.816 56.1069 131.322 57.1127" stroke="black" stroke-width="13" stroke-linecap="round"/>
<path d="M47.2983 113.591C50.4121 116.779 47.0987 130.145 62.867 129.533C78.6353 128.921 112.559 118.781 126.14 110.53C139.721 102.28 129.846 92.7309 130.772 88.2811" stroke="black" stroke-width="13" stroke-linecap="round"/>
<path d="M62.4344 32.4482C60.0949 37.0603 56.8197 47.7683 62.4344 53.7038" stroke="black" stroke-width="13" stroke-linecap="round"/>
<path d="M77.7862 28.8388C75.5136 33.9187 72.3319 45.4422 77.7862 50.8965" stroke="black" stroke-width="13" stroke-linecap="round"/>
</svg>
