<svg width="167" height="123" viewBox="0 0 167 123" fill="none" xmlns="http://www.w3.org/2000/svg">
<path d="M98.3657 22.7681L101.246 16.9413L98.3657 22.7681C105.405 26.2484 110.576 34.3023 114.247 43.9211C114.748 45.2335 114.421 47.0068 112.99 48.3195L105.591 53.8212C102.333 55.8581 98.925 57.6465 95.3975 59.171L94.9552 59.3622L88.7793 61.7951L81.101 63.8551L73.6739 65.3787L65.3352 66.5422L56.5592 67.5483L49.7117 67.5483L43.8965 67.5483C42.5994 67.5483 41.5157 66.7142 41.1678 65.5997C38.0083 55.4774 36.6433 47.7034 40.2021 41.035C45.4349 31.2299 54.4405 23.7376 65.2659 20.2614C76.0355 16.8031 88.3502 17.8166 98.3657 22.7681Z" stroke="black" stroke-width="13"/>
<path d="M19.1065 74.194C16.6922 77.282 6.32124 85.2629 7.03515 89.6343C7.74906 94.0058 14.7754 97.4949 22.676 96.0511C30.5767 94.6073 36.1513 83.9394 46.5384 82.4155C56.9256 80.8915 64.2247 87.7895 74.6118 88.4312C84.999 89.0729 90.8142 88.752 98.4742 85.6238C106.134 82.4957 110.024 75.357 112.912 72.7903" stroke="black" stroke-width="13" stroke-linecap="round"/>
<path d="M123.104 67.9777H133.261L145.106 66.6541C151.744 65.3131 163.783 60.0493 158.839 49.7228C152.659 36.8148 135.816 42.1069 130.322 43.1127" stroke="black" stroke-width="13" stroke-linecap="round"/>
<path d="M46.2983 99.5911C49.4121 102.779 46.0987 116.145 61.867 115.533C77.6353 114.921 111.559 104.781 125.14 96.5303C138.721 88.2799 128.846 78.7309 129.772 74.2811" stroke="black" stroke-width="13" stroke-linecap="round"/>
<path d="M61.4344 18.4482C59.0949 23.0603 55.8197 33.7683 61.4344 39.7038" stroke="black" stroke-width="13" stroke-linecap="round"/>
<path d="M76.7862 14.8388C74.5136 19.9187 71.3319 31.4422 76.7862 36.8965" stroke="black" stroke-width="13" stroke-linecap="round"/>
</svg>
